<svg xmlns="http://www.w3.org/2000/svg" width="720" height="405"><title>systemd components</title><path fill="#d89593" d="M0 365h720v40H0z"/><path fill="#d6e3bb" d="M0 300h720v55H0z"/><path fill="#daedf4" d="M0 195h720v100H0z"/><path fill="#c5d8f1" d="M0 0h720v55H0z"/><path fill="#fde9d9" d="M213 60h507v130H213z"/><path fill="#e5dfeb" d="M0 60h206.172v130H0z"/><g transform="translate(0 38.486)"><path fill="#92ccdc" d="M107.5 176.514h275v75h-275z"/><path fill="#4dacc6" d="M115 221.764h75v22h-75zM195 221.764h55v22h-55zM195 194.764h55v22h-55zM115 194.764h75v22h-75z"/><path fill="#92ccdc" d="M390.93 176.514h135v75h-135z"/><path fill="#c2d599" d="M25 284.014h75v27.5H25zM285 284.014h115v27.5H285zM415 284.014h100v27.5H415zM115 284.014h75v27.5h-75zM205 284.014h65v27.5h-65zM530 284.014h75v27.5h-75zM620 284.014h75v27.5h-75z"/><path fill="#92ccdc" d="M640 219.014h55v27.5h-55zM640 184.014h55v27.5h-55zM535 219.014h100v27.5H535zM535 184.014h100v27.5H535zM25 184.014h75v27.5H25zM25 219.014h75v27.5H25z"/><path fill="#4dacc6" d="M255 221.764h60v22h-60zM320 221.764h55v22h-55zM320 194.764h55v22h-55zM255 194.764h60v22h-60zM398.43 221.764h70v22h-70zM473.43 221.764h45v22h-45zM473.43 194.764h45v22h-45zM398.43 194.764h70v22h-70z"/><rect width="95" height="27.5" x="25" y="-15.986" rx="0" ry="0" fill="#8db3e2"/><rect ry="0" rx="0" y="-15.986" x="237.714" height="27.5" width="65" fill="#8db3e2"/><rect width="78" height="27.5" x="311.571" y="-15.986" rx="0" ry="0" fill="#8db3e2"/><rect ry="0" rx="0" y="-15.986" x="398.429" height="27.5" width="55" fill="#8db3e2"/><rect width="60" height="27.5" x="462.286" y="-15.986" rx="0" ry="0" fill="#8db3e2"/><rect ry="0" rx="0" y="-15.986" x="531.143" height="27.5" width="80" fill="#8db3e2"/><rect width="100" height="27.5" x="128.857" y="-15.986" rx="0" ry="0" fill="#8db3e2"/><rect ry="0" rx="0" y="-15.986" x="620" height="27.5" width="75" fill="#8db3e2"/><path fill="#fabf8e" d="M597.5 71.514h115v75h-115zM519.9 71.514h74v75h-74zM380.5 71.514h135v75h-135zM230.5 114.014h85v27.5h-85z"/><path fill="#f79547" d="M385.5 116.764h45v22h-45z"/><path fill="#cbc0d9" d="M95 114.014h100v27.5H95zM110 79.014h85v27.5h-85zM25 79.014h80v27.5H25zM25 114.014h65v27.5H25z"/><path fill="#fabf8e" d="M230.5 79.014h85v27.5h-85zM320.5 79.014h55v27.5h-55zM320.5 114.014h55v27.5h-55z"/><path fill="#f79547" d="M602.5 116.764h105v22h-105zM602.5 89.764h105v22h-105zM385.5 89.764h45v22h-45zM435.5 116.764h75v22h-75zM435.5 89.764h75v22h-75zM527.2 91.578h60v39.93h-60z"/><path fill="#f2dbda" d="M195 332.764h100v27.5H195z"/><rect ry="0" rx="0" y="332.764" x="310" height="27.5" width="100" fill="#f2dbda"/><rect width="100" height="27.5" x="425" y="332.764" rx="0" ry="0" fill="#f2dbda"/><path fill="#cbc0d9" d="M25 44.4h100v27.5H25z"/></g><g letter-spacing="0"><text style="text-align:center;line-height:125%;-inkscape-font-specification:Monospace" x="71.499" y="302.905" font-size="16" font-weight="400" word-spacing="0" text-anchor="middle" font-family="Monospace" transform="translate(.942 -261.94)"><tspan x="71.499" y="302.905">systemctl</tspan></text><text y="471.521" x="18.23" style="text-align:start;line-height:125%;-inkscape-font-specification:Sans Bold" font-size="16" font-weight="700" word-spacing="0" font-family="Sans" transform="translate(.942 -261.94)"><tspan y="471.521" x="18.23">systemd Core</tspan></text><text style="text-align:center;line-height:125%;-inkscape-font-specification:Sans" x="60.839" y="504.155" font-size="16" font-weight="400" word-spacing="0" text-anchor="middle" font-family="Sans" transform="translate(.942 -261.94)"><tspan x="60.839" y="504.155">manager</tspan></text><text y="511.409" x="151.551" style="text-align:center;line-height:125%;-inkscape-font-specification:Sans" font-size="14" font-weight="400" word-spacing="0" text-anchor="middle" font-family="Sans" transform="translate(.942 -261.94)"><tspan y="511.409" x="151.551">service</tspan></text><text style="text-align:center;line-height:125%;-inkscape-font-specification:Sans" x="283.849" y="538.409" font-size="14" font-weight="400" word-spacing="0" text-anchor="middle" font-family="Sans" transform="translate(.942 -261.94)"><tspan x="283.849" y="538.409">socket</tspan></text><text y="511.409" x="283.593" style="text-align:center;line-height:125%;-inkscape-font-specification:Sans" font-size="14" font-weight="400" word-spacing="0" text-anchor="middle" font-family="Sans" transform="translate(.942 -261.94)"><tspan y="511.409" x="283.593">mount</tspan></text><text y="539.155" x="61.851" style="text-align:center;line-height:125%;-inkscape-font-specification:Sans" font-size="16" font-weight="400" word-spacing="0" text-anchor="middle" font-family="Sans" transform="translate(.942 -261.94)"><tspan y="539.155" x="61.851">systemd</tspan></text><text style="text-align:center;line-height:125%;-inkscape-font-specification:Sans" x="151.349" y="538.409" font-size="14" font-weight="400" word-spacing="0" text-anchor="middle" font-family="Sans" transform="translate(.942 -261.94)"><tspan x="151.349" y="538.409">snapshot</tspan></text><text y="538.409" x="221.523" style="text-align:center;line-height:125%;-inkscape-font-specification:Sans" font-size="14" font-weight="400" word-spacing="0" text-anchor="middle" font-family="Sans" transform="translate(.942 -261.94)"><tspan y="538.409" x="221.523">path</tspan></text><text style="text-align:center;line-height:125%;-inkscape-font-specification:Sans" x="346.541" y="511.409" font-size="14" font-weight="400" word-spacing="0" text-anchor="middle" font-family="Sans" transform="translate(.942 -261.94)"><tspan x="346.541" y="511.409">target</tspan></text><text style="text-align:center;line-height:125%;-inkscape-font-specification:Sans" x="221.376" y="511.409" font-size="14" font-weight="400" word-spacing="0" text-anchor="middle" font-family="Sans" transform="translate(.942 -261.94)"><tspan x="221.376" y="511.409">timer</tspan></text><text y="538.409" x="346.561" style="text-align:center;line-height:125%;-inkscape-font-specification:Sans" font-size="14" font-weight="400" word-spacing="0" text-anchor="middle" font-family="Sans" transform="translate(.942 -261.94)"><tspan y="538.409" x="346.561">swap</tspan></text><text style="text-align:center;line-height:125%;-inkscape-font-specification:Sans" x="243.573" y="490.905" font-size="16" font-weight="400" word-spacing="0" text-anchor="middle" font-family="Sans" transform="translate(.942 -261.94)"><tspan x="243.573" y="490.905">unit</tspan></text><text style="text-align:center;line-height:125%;-inkscape-font-specification:Sans" x="432.021" y="511.409" font-size="14" font-weight="400" word-spacing="0" text-anchor="middle" font-family="Sans" transform="translate(.942 -261.94)"><tspan x="432.021" y="511.409">multiseat</tspan></text><text y="511.409" x="494.498" style="text-align:center;line-height:125%;-inkscape-font-specification:Sans" font-size="14" font-weight="400" word-spacing="0" text-anchor="middle" font-family="Sans" transform="translate(.942 -261.94)"><tspan y="511.409" x="494.498">inhibit</tspan></text><text y="538.409" x="494.949" style="text-align:center;line-height:125%;-inkscape-font-specification:Sans" font-size="14" font-weight="400" word-spacing="0" text-anchor="middle" font-family="Sans" transform="translate(.942 -261.94)"><tspan y="538.409" x="494.949">pam</tspan></text><text style="text-align:center;line-height:125%;-inkscape-font-specification:Sans" x="432.709" y="538.409" font-size="14" font-weight="400" word-spacing="0" text-anchor="middle" font-family="Sans" transform="translate(.942 -261.94)"><tspan x="432.709" y="538.409">session</tspan></text><text y="490.905" x="457.42" style="text-align:center;line-height:125%;-inkscape-font-specification:Sans" font-size="16" font-weight="400" word-spacing="0" text-anchor="middle" font-family="Sans" transform="translate(.942 -261.94)"><tspan y="490.905" x="457.42">login</tspan></text><text y="504.155" x="583.757" style="text-align:center;line-height:125%;-inkscape-font-specification:Sans" font-size="16" font-weight="400" word-spacing="0" text-anchor="middle" font-family="Sans" transform="translate(.942 -261.94)"><tspan y="504.155" x="583.757">namespace</tspan></text><text style="text-align:center;line-height:125%;-inkscape-font-specification:Sans" x="584.054" y="539.155" font-size="16" font-weight="400" word-spacing="0" text-anchor="middle" font-family="Sans" transform="translate(.942 -261.94)"><tspan x="584.054" y="539.155">cgroup</tspan></text><text style="text-align:center;line-height:125%;-inkscape-font-specification:Sans" x="666.53" y="504.155" font-size="16" font-weight="400" word-spacing="0" text-anchor="middle" font-family="Sans" transform="translate(.942 -261.94)"><tspan x="666.53" y="504.155">log</tspan></text><text y="539.155" x="666.511" style="text-align:center;line-height:125%;-inkscape-font-specification:Sans" font-size="16" font-weight="400" word-spacing="0" text-anchor="middle" font-family="Sans" transform="translate(.942 -261.94)"><tspan y="539.155" x="666.511">dbus</tspan></text><text style="text-align:start;line-height:125%;-inkscape-font-specification:Sans Bold" x="18.23" y="575.777" font-size="16" font-weight="700" word-spacing="0" font-family="Sans" transform="translate(.942 -261.94)"><tspan x="18.23" y="575.777">systemd Libraries</tspan></text><text y="652.905" x="17.589" style="text-align:start;line-height:125%;-inkscape-font-specification:Sans Bold" font-size="16" font-weight="700" word-spacing="0" font-family="Sans" transform="translate(.942 -261.94)"><tspan y="652.905" x="17.589">Linux Kernel</tspan></text><text style="text-align:start;line-height:125%;-inkscape-font-specification:Sans Bold" x="236.23" y="336.096" font-size="16" font-weight="700" word-spacing="0" font-family="Sans" transform="translate(.942 -261.94)"><tspan x="236.23" y="336.096">systemd Targets</tspan></text><text y="276.562" x="18.23" style="text-align:start;line-height:125%;-inkscape-font-specification:Sans Bold" font-size="16" font-weight="700" word-spacing="0" font-family="Sans" transform="translate(.942 -261.94)"><tspan y="276.562" x="18.23">systemd Utilities</tspan></text><text y="302.905" x="268.819" style="text-align:center;line-height:125%;-inkscape-font-specification:Monospace" font-size="16" font-weight="400" word-spacing="0" text-anchor="middle" font-family="Monospace" transform="translate(.942 -261.94)"><tspan y="302.905" x="268.819">notify</tspan></text><text style="text-align:center;line-height:125%;-inkscape-font-specification:Monospace" x="349.578" y="302.905" font-size="16" font-weight="400" word-spacing="0" text-anchor="middle" font-family="Monospace" transform="translate(.942 -261.94)"><tspan x="349.578" y="302.905">analyze</tspan></text><text y="302.905" x="425.014" style="text-align:center;line-height:125%;-inkscape-font-specification:Monospace" font-size="16" font-weight="400" word-spacing="0" text-anchor="middle" font-family="Monospace" transform="translate(.942 -261.94)"><tspan y="302.905" x="425.014">cgls</tspan></text><text style="text-align:center;line-height:125%;-inkscape-font-specification:Monospace" x="491.066" y="302.905" font-size="16" font-weight="400" word-spacing="0" text-anchor="middle" font-family="Monospace" transform="translate(.942 -261.94)"><tspan x="491.066" y="302.905">cgtop</tspan></text><text y="302.905" x="570.201" style="text-align:center;line-height:125%;-inkscape-font-specification:Monospace" font-size="16" font-weight="400" word-spacing="0" text-anchor="middle" font-family="Monospace" transform="translate(.942 -261.94)"><tspan y="302.905" x="570.201">loginctl</tspan></text><text style="text-align:center;line-height:125%;-inkscape-font-specification:Monospace" x="177.962" y="302.905" font-size="16" font-weight="400" word-spacing="0" text-anchor="middle" font-family="Monospace" transform="translate(.942 -261.94)"><tspan x="177.962" y="302.905">journalctl</tspan></text><text y="302.905" x="656.519" style="text-align:center;line-height:125%;-inkscape-font-specification:Monospace" font-size="16" font-weight="400" word-spacing="0" text-anchor="middle" font-family="Monospace" transform="translate(.942 -261.94)"><tspan y="302.905" x="656.519">nspawn</tspan></text><text style="text-align:center;line-height:125%;-inkscape-font-specification:Sans" x="61.858" y="605.405" font-size="16" font-weight="400" word-spacing="0" text-anchor="middle" font-family="Sans" transform="translate(.942 -261.94)"><tspan x="61.858" y="605.405">dbus-1</tspan></text><text y="605.405" x="151.487" style="text-align:center;line-height:125%;-inkscape-font-specification:Sans" font-size="16" font-weight="400" word-spacing="0" text-anchor="middle" font-family="Sans" transform="translate(.942 -261.94)"><tspan y="605.405" x="151.487">libpam</tspan></text><text y="605.405" x="236.241" style="text-align:center;line-height:125%;-inkscape-font-specification:Sans" font-size="16" font-weight="400" word-spacing="0" text-anchor="middle" font-family="Sans" transform="translate(.942 -261.94)"><tspan y="605.405" x="236.241">libcap</tspan></text><text style="text-align:center;line-height:125%;-inkscape-font-specification:Sans" x="341.241" y="605.405" font-size="16" font-weight="400" word-spacing="0" text-anchor="middle" font-family="Sans" transform="translate(.942 -261.94)"><tspan x="341.241" y="605.405">libcryptsetup</tspan></text><text style="text-align:center;line-height:125%;-inkscape-font-specification:Sans" x="463.851" y="605.405" font-size="16" font-weight="400" word-spacing="0" text-anchor="middle" font-family="Sans" transform="translate(.942 -261.94)"><tspan x="463.851" y="605.405">tcpwrapper</tspan></text><text y="605.405" x="565.999" style="text-align:center;line-height:125%;-inkscape-font-specification:Sans" font-size="16" font-weight="400" word-spacing="0" text-anchor="middle" font-family="Sans" transform="translate(.942 -261.94)"><tspan y="605.405" x="565.999">libaudit</tspan></text><text style="text-align:center;line-height:125%;-inkscape-font-specification:Sans" x="656.042" y="605.405" font-size="16" font-weight="400" word-spacing="0" text-anchor="middle" font-family="Sans" transform="translate(.942 -261.94)"><tspan x="656.042" y="605.405">libnotify</tspan></text><text y="399.155" x="346.835" style="text-align:center;line-height:125%;-inkscape-font-specification:Sans" font-size="16" font-weight="400" word-spacing="0" text-anchor="middle" font-family="Sans" transform="translate(.942 -261.94)"><tspan y="399.155" x="346.835">basic</tspan></text><text style="text-align:center;line-height:125%;-inkscape-font-specification:Sans" x="346.526" y="434.155" font-size="16" font-weight="400" word-spacing="0" text-anchor="middle" font-family="Sans" transform="translate(.942 -261.94)"><tspan x="346.526" y="434.155">reboot</tspan></text><text style="text-align:center;line-height:125%;-inkscape-font-specification:Sans" x="271.757" y="399.155" font-size="16" font-weight="400" word-spacing="0" text-anchor="middle" font-family="Sans" transform="translate(.942 -261.94)"><tspan x="271.757" y="399.155">bootmode</tspan></text><text y="434.155" x="272.312" style="text-align:center;line-height:125%;-inkscape-font-specification:Sans" font-size="16" font-weight="400" word-spacing="0" text-anchor="middle" font-family="Sans" transform="translate(.942 -261.94)"><tspan y="434.155" x="272.312">shutdown</tspan></text><text style="text-align:center;line-height:125%;-inkscape-font-specification:Sans" x="407.017" y="406.409" font-size="14" font-weight="400" word-spacing="0" text-anchor="middle" font-family="Sans" transform="translate(.942 -261.94)"><tspan x="407.017" y="406.409">dbus</tspan></text><text y="406.409" x="472.078" style="text-align:center;line-height:125%;-inkscape-font-specification:Sans" font-size="14" font-weight="400" word-spacing="0" text-anchor="middle" font-family="Sans" transform="translate(.942 -261.94)"><tspan y="406.409" x="472.078">telephony</tspan></text><text style="text-align:center;line-height:125%;-inkscape-font-specification:Sans" x="472.034" y="433.409" font-size="14" font-weight="400" word-spacing="0" text-anchor="middle" font-family="Sans" transform="translate(.942 -261.94)"><tspan x="472.034" y="433.409">logind</tspan></text><text y="384.914" x="446.339" style="text-align:center;line-height:125%;-inkscape-font-specification:Sans" font-size="16" font-weight="400" word-spacing="0" text-anchor="middle" font-family="Sans" transform="translate(.942 -261.94)"><tspan y="384.914" x="446.339">multi-user</tspan></text><text y="433.409" x="407.307" style="text-align:center;line-height:125%;-inkscape-font-specification:Sans" font-size="14" font-weight="400" word-spacing="0" text-anchor="middle" font-family="Sans" transform="translate(.942 -261.94)"><tspan y="433.409" x="407.307">dlog</tspan></text><text y="409.44" x="556.258" style="text-align:center;line-height:125%;-inkscape-font-specification:Sans" font-size="14" font-weight="400" word-spacing="0" text-anchor="middle" font-family="Sans" transform="translate(.942 -261.94)"><tspan y="409.44" x="556.258">user-</tspan><tspan y="426.94" x="556.258">sesssion</tspan></text><text style="text-align:center;line-height:125%;-inkscape-font-specification:Sans" x="556.609" y="383.8" transform="matrix(.99722 0 0 1.0028 .942 -261.94)" font-size="15.955" font-weight="400" word-spacing="0" text-anchor="middle" font-family="Sans"><tspan x="556.609" y="383.8">graphical</tspan></text><text style="text-align:center;line-height:125%;-inkscape-font-specification:FreeSans" x="356.447" y="422.271" font-size="13" font-weight="400" word-spacing="0" text-anchor="middle" font-family="FreeSans" transform="translate(.942 -261.94)"/><text style="text-align:center;line-height:125%;-inkscape-font-specification:Sans" x="654.044" y="406.409" font-size="14" font-weight="400" word-spacing="0" text-anchor="middle" font-family="Sans" transform="translate(.942 -261.94)"><tspan x="654.044" y="406.409">display service</tspan></text><text y="384.914" x="654.065" style="text-align:center;line-height:125%;-inkscape-font-specification:Sans" font-size="16" font-weight="400" word-spacing="0" text-anchor="middle" font-family="Sans" transform="translate(.942 -261.94)"><tspan y="384.914" x="654.065">user-session</tspan></text><text y="433.409" x="654.242" style="text-align:center;line-height:125%;-inkscape-font-specification:Sans" font-size="14" font-weight="400" word-spacing="0" text-anchor="middle" font-family="Sans" transform="translate(.942 -261.94)"><tspan y="433.409" x="654.242">tizen service</tspan></text><text y="336.096" x="100.87" style="text-align:center;line-height:125%;-inkscape-font-specification:Sans Bold" font-size="16" font-weight="700" word-spacing="0" text-anchor="middle" font-family="Sans" transform="translate(.942 -261.94)"><tspan y="336.096" x="100.87">systemd Daemons</tspan></text><text style="text-align:center;line-height:125%;-inkscape-font-specification:Monospace" x="56.675" y="434.155" font-size="16" font-weight="400" word-spacing="0" text-anchor="middle" font-family="Monospace" transform="translate(.942 -261.94)"><tspan x="56.675" y="434.155">logind</tspan></text><text y="399.155" x="62.429" style="text-align:center;line-height:125%;-inkscape-font-specification:Monospace" font-size="16" font-weight="400" word-spacing="0" text-anchor="middle" font-family="Monospace" transform="translate(.942 -261.94)"><tspan y="399.155" x="62.429">journald</tspan></text><text y="362.99" x="73.968" style="text-align:center;line-height:125%;-inkscape-font-specification:Monospace" font-size="16" font-weight="400" word-spacing="0" text-anchor="middle" font-family="Monospace" transform="translate(.942 -261.94)"><tspan y="362.99" x="73.968">systemd</tspan></text><text style="text-align:center;line-height:125%;-inkscape-font-specification:Monospace" x="144.003" y="434.155" font-size="16" font-weight="400" word-spacing="-5" text-anchor="middle" font-family="Monospace" transform="translate(.942 -261.94)"><tspan x="144.003" y="434.155">session</tspan></text><text y="652.905" x="244.011" style="text-align:center;line-height:125%;-inkscape-font-specification:Sans" font-size="16" font-weight="400" word-spacing="0" text-anchor="middle" font-family="Sans" transform="translate(.942 -261.94)"><tspan y="652.905" x="244.011">cgroups</tspan></text><text style="text-align:center;line-height:125%;-inkscape-font-specification:Sans" x="358.972" y="652.905" font-size="16" font-weight="400" word-spacing="0" text-anchor="middle" font-family="Sans" transform="translate(.942 -261.94)"><tspan x="358.972" y="652.905">autofs</tspan></text><text y="652.905" x="473.726" style="text-align:center;line-height:125%;-inkscape-font-specification:Sans" font-size="16" font-weight="400" word-spacing="0" text-anchor="middle" font-family="Sans" transform="translate(.942 -261.94)"><tspan y="652.905" x="473.726">kdbus</tspan></text><text style="text-align:center;line-height:125%;-inkscape-font-specification:Monospace" x="151.477" y="399.155" font-size="16" font-weight="400" word-spacing="0" text-anchor="middle" font-family="Monospace" transform="translate(.942 -261.94)"><tspan x="151.477" y="399.155">networkd</tspan></text></g></svg>